<svg width="13" height="20" viewBox="0 0 13 20" fill="none" xmlns="http://www.w3.org/2000/svg">
<path d="M12.1907 0H9.1821L8.8001 0.3678L6.9986 3.6585C6.8987 3.8311 6.7584 3.9776 6.5896 4.0856C6.3856 4.2162 6.1478 4.2856 5.9048 4.2856H0.8191C0.3667 4.2856 0 4.6328 0 5.0611V7.7958C0 8.2241 0.3667 8.5713 0.8191 8.5713H3.1819C3.304 8.5713 3.42 8.624 3.4995 8.7156C3.6128 8.8462 3.6327 9.0324 3.5494 9.1835L0.0981998 16.1311C0.0338998 16.2428 0.000100136 16.369 0.000100136 16.4975V19.2284C0.000100136 19.6544 0.3639 19.9998 0.8126 19.9998H3.8188L4.2004 19.632L5.9944 16.3399C6.0937 16.1675 6.2335 16.0211 6.4019 15.9132C6.6048 15.7832 6.8414 15.7141 7.0831 15.7141H12.1875C12.6362 15.7141 13 15.3687 13 14.9427V12.1937C13 11.771 12.6381 11.4284 12.1916 11.4284H9.7958C9.6718 11.4284 9.5541 11.3746 9.4738 11.2811C9.3605 11.1493 9.341 10.9621 9.4247 10.8102L12.9009 3.8135C12.9658 3.7007 12.9999 3.5731 12.9999 3.4433L12.999 0.7649C12.9989 0.3425 12.6371 0 12.1907 0Z" fill="white"/>
</svg>
