<svg width="22" height="16" viewBox="0 0 22 16" fill="none" xmlns="http://www.w3.org/2000/svg">
<path d="M21.9729 5.8163C21.9651 5.704 21.9579 5.5886 21.9506 5.4707C21.8779 4.3 21.7875 2.843 20.9525 1.5874C20.94 1.5687 20.9268 1.5505 20.9128 1.5329C20.4164 0.9078 19.6029 0.4419 18.7382 0.2866C17.7107 0.1005 14.2551 0 11.0078 0C7.76001 0 4.30431 0.1005 3.27981 0.2864C2.59151 0.4095 1.97471 0.7071 1.44391 1.1734C0.423207 2.0778 0.271007 3.4609 0.148807 4.5721C0.137107 4.6786 0.125507 4.7839 0.113407 4.8873C0.112307 4.8972 0.111207 4.9071 0.110507 4.9171C-0.0359929 6.7762 -0.0362929 8.5575 0.109407 11.0654C0.109807 11.0724 0.110407 11.0795 0.110907 11.0866C0.193007 12.045 0.256607 12.5389 0.435907 13.111C0.652907 13.8235 0.947707 14.3509 1.33071 14.7175C1.81501 15.191 2.46461 15.5174 3.20641 15.661C4.12361 15.8417 4.90741 15.9077 9.14351 15.9823L9.14551 15.9824C9.91221 15.9941 10.6483 16.0001 11.3634 16.0001C14.1043 16.0001 15.9831 15.9122 18.6133 15.7231C18.639 15.7212 18.6645 15.7183 18.6899 15.7141C19.4221 15.5939 20.0901 15.2674 20.6274 14.7642C20.9767 14.4308 21.1868 14.1133 21.4004 13.5979C21.7436 12.7871 21.8488 11.998 21.9734 10.1754C22.0089 9.5856 22.0089 6.4131 21.9729 5.8163ZM14.5304 8.525C13.1491 9.2157 10.4702 10.5607 8.47211 11.5971C8.12231 11.7785 7.69991 11.5323 7.69991 11.1476V4.9274C7.69991 4.5467 8.11631 4.3006 8.46571 4.4741C10.5685 5.5182 12.3915 6.5426 14.5296 7.6202C14.9082 7.811 14.9096 8.3353 14.5304 8.525Z" fill="white"/>
</svg>
