<svg width="28" height="20" viewBox="0 0 28 20" fill="none" xmlns="http://www.w3.org/2000/svg">
<path d="M7.45958 7.76182C7.45958 7.76182 7.86719 4.55895 7.45958 3.10572C7.05197 1.65249 6.09487 0.900401 4.67727 0.812494C3.25967 0.724587 1.23754 2.03767 0.884535 5.60873C0.566921 8.3205 0.59668 11.061 0.973108 13.7654C1.27408 15.5333 2.14305 18.0546 3.64922 19.0517C5.15539 20.0488 7.01672 20.0845 8.381 18.912C9.74529 17.7395 12.1737 11.8578 13.1308 10.5621C13.1308 10.5621 12.7942 14.8683 14.6551 16.3563C16.516 17.8444 19.0837 17.4766 20.2016 15.4811C21.3196 13.4855 23.8877 8.28671 25.3587 6.16888C26.8296 4.05104 27.7871 2.66831 27.1138 1.54972C26.4405 0.431139 24.3667 0.552171 23.0201 1.79476C21.6734 3.03735 18.4121 6.46657 18.4121 6.46657C18.4121 6.46657 19.0854 1.25245 16.9765 0.480401C14.8675 -0.291652 12.4928 0.480401 10.2419 3.73593L7.45958 7.76182Z" fill="white"/>
</svg>
